<svg width="24" height="21" viewBox="0 0 24 21" fill="none" xmlns="http://www.w3.org/2000/svg">
<path d="M12.9199 2.35645C14.3348 0.908756 16.3458 0.249389 18.3193 0.585938C21.3007 1.09524 23.5 3.73946 23.5 6.85645V7.13379C23.5 8.87386 22.8387 10.5405 21.665 11.7812L21.4238 12.0244L12.9531 20.1152C12.6937 20.363 12.353 20.5 12 20.5C11.647 20.5 11.3063 20.363 11.0469 20.1152L2.57617 12.0244L2.33496 11.7812C1.16131 10.5405 0.5 8.87386 0.5 7.13379V6.85645C0.5 3.73946 2.69934 1.09524 5.68066 0.585938C7.6542 0.249389 9.66518 0.908756 11.0801 2.35645L11.6426 2.93262L12 3.29785L12.3574 2.93262L12.9199 2.35645Z" fill="white" stroke="black"/>
</svg>
