<svg width="16" height="15" viewBox="0 0 16 15" fill="none" xmlns="http://www.w3.org/2000/svg">
<path d="M6.69778 12.0327C6.69772 12.1565 6.73219 12.278 6.7973 12.3834C6.86242 12.4888 6.95562 12.5739 7.06644 12.6293L8.39973 13.296C8.50139 13.3468 8.61435 13.3707 8.72788 13.3656C8.84141 13.3604 8.95174 13.3264 9.04839 13.2666C9.14504 13.2068 9.22481 13.1233 9.28011 13.024C9.33541 12.9247 9.36441 12.813 9.36436 12.6993V8.03279C9.36451 7.70239 9.48733 7.38382 9.70901 7.13882L14.5242 1.813C14.6105 1.71738 14.6672 1.5988 14.6876 1.4716C14.7079 1.34441 14.691 1.21404 14.6388 1.09628C14.5866 0.97851 14.5014 0.878383 14.3935 0.808005C14.2856 0.737626 14.1597 0.700011 14.0309 0.699707H2.03127C1.90235 0.699754 1.7762 0.737183 1.66812 0.807461C1.56003 0.877739 1.47464 0.977851 1.4223 1.09567C1.36995 1.21349 1.35289 1.34396 1.37318 1.47127C1.39347 1.59859 1.45024 1.71729 1.53662 1.813L6.35313 7.13882C6.57481 7.38382 6.69763 7.70239 6.69778 8.03279V12.0327Z" stroke="#0A0A0A" stroke-width="1.33329" stroke-linecap="round" stroke-linejoin="round"/>
</svg>
