<svg width="18" height="18" viewBox="0 0 18 18" fill="none" xmlns="http://www.w3.org/2000/svg">
<circle cx="9" cy="9" r="7" fill="white"/>
<path d="M9.0001 1.35C7.48707 1.35 6.00803 1.79867 4.74999 2.63926C3.49195 3.47985 2.51143 4.67462 1.93242 6.07247C1.35341 7.47033 1.20192 9.00849 1.49709 10.4924C1.79227 11.9764 2.52086 13.3395 3.59073 14.4094C4.66061 15.4792 6.02371 16.2078 7.50766 16.503C8.99161 16.7982 10.5298 16.6467 11.9276 16.0677C13.3255 15.4887 14.5203 14.5081 15.3608 13.2501C16.2014 11.9921 16.6501 10.513 16.6501 9C16.6509 7.99516 16.4536 7.00001 16.0695 6.07149C15.6853 5.14298 15.1219 4.29932 14.4113 3.58879C13.7008 2.87825 12.8571 2.31479 11.9286 1.93064C11.0001 1.54648 10.0049 1.34917 9.0001 1.35ZM9.0001 14.85C7.84308 14.85 6.71204 14.5069 5.75002 13.8641C4.78799 13.2213 4.03818 12.3076 3.59541 11.2387C3.15263 10.1698 3.03678 8.99351 3.26251 7.85872C3.48823 6.72393 4.04539 5.68156 4.86353 4.86343C5.68166 4.04529 6.72403 3.48813 7.85882 3.26241C8.99361 3.03668 10.1699 3.15253 11.2388 3.59531C12.3077 4.03808 13.2214 4.78789 13.8642 5.74992C14.507 6.71194 14.8501 7.84298 14.8501 9C14.8516 9.76867 14.7014 10.5301 14.4079 11.2405C14.1145 11.951 13.6836 12.5965 13.1401 13.14C12.5966 13.6835 11.9511 14.1144 11.2406 14.4078C10.5302 14.7013 9.76877 14.8515 9.0001 14.85ZM11.2501 6.615L8.6401 9.765L6.8401 8.46C6.4351 8.145 5.8951 8.235 5.5801 8.64C5.2651 9.045 5.3551 9.585 5.7601 9.9C6.3001 10.305 6.8851 10.71 7.4251 11.115C7.8301 11.385 8.1901 11.79 8.6851 11.835C8.8201 11.835 9.0001 11.835 9.1351 11.745L9.4051 11.475L11.4301 9.045C11.7901 8.595 12.1501 8.19 12.5101 7.74C12.7801 7.38 12.8701 6.93 12.5551 6.57L12.4201 6.435C12.1051 6.21 11.5651 6.255 11.2501 6.615Z" fill="#04CB1F"/>
</svg>
