<svg width="64" height="64" viewBox="0 0 64 64" fill="none" xmlns="http://www.w3.org/2000/svg">
<path d="M0 32C0 14.3269 14.3269 0 32 0C49.6731 0 64 14.3269 64 32C64 49.6731 49.6731 64 32 64C14.3269 64 0 49.6731 0 32Z" fill="#9A9DA4"/>
<g clip-path="url(#clip0_47_383)">
<path d="M37.8828 30.1328C36.5609 30.3578 35.1547 29.9641 34.1328 28.9422L32.3469 27.1562C31.6437 26.4531 31.25 25.5062 31.25 24.5125V23.9453L27.5141 21.9062C27.2656 21.7703 27.1109 21.5031 27.125 21.2172C27.1391 20.9312 27.3078 20.6781 27.5703 20.5609L29.7828 19.5766C30.6453 19.1969 31.5781 19 32.525 19H33.3734C35.0938 19 36.7484 19.6562 38 20.8328L40.0906 22.8016C41.225 23.8703 41.6469 25.4125 41.3375 26.8328L42.0781 27.5781L42.4531 27.2031C42.8937 26.7625 43.6063 26.7625 44.0422 27.2031L45.1672 28.3281C45.6078 28.7688 45.6078 29.4812 45.1672 29.9172L41.0422 34.0422C40.6016 34.4828 39.8891 34.4828 39.4531 34.0422L38.3281 32.9172C37.8875 32.4766 37.8875 31.7641 38.3281 31.3281L38.7031 30.9531L37.8828 30.1328ZM19.7844 36.6766L30.7297 27.5594C30.8937 27.7891 31.0813 28.0094 31.2828 28.2156L33.0687 30.0016C33.35 30.2828 33.65 30.5266 33.9688 30.7375L24.8234 41.7156C24.1437 42.5312 23.1359 43 22.0766 43C20.0984 43 18.5 41.3969 18.5 39.4234C18.5 38.3641 18.9734 37.3563 19.7844 36.6766Z" fill="white"/>
</g>
<defs>
<clipPath id="clip0_47_383">
<path d="M18.5 19H45.5V43H18.5V19Z" fill="white"/>
</clipPath>
</defs>
</svg>
