<svg width="48" height="48" viewBox="0 0 48 48" fill="none" xmlns="http://www.w3.org/2000/svg">
<path d="M0 24C0 10.7452 10.7452 0 24 0C37.2548 0 48 10.7452 48 24C48 37.2548 37.2548 48 24 48C10.7452 48 0 37.2548 0 24Z" fill="#9A9DA4"/>
<path d="M17.5 17C16.6719 17 16 17.6719 16 18.5C16 18.9719 16.2219 19.4156 16.6 19.7L23.4 24.8C23.7562 25.0656 24.2438 25.0656 24.6 24.8L31.4 19.7C31.7781 19.4156 32 18.9719 32 18.5C32 17.6719 31.3281 17 30.5 17H17.5ZM16 20.5V27C16 28.1031 16.8969 29 18 29H30C31.1031 29 32 28.1031 32 27V20.5L25.2 25.6C24.4875 26.1344 23.5125 26.1344 22.8 25.6L16 20.5Z" fill="white"/>
</svg>
