<svg width="48" height="48" viewBox="0 0 48 48" fill="none" xmlns="http://www.w3.org/2000/svg">
<path d="M0 24C0 10.7452 10.7452 0 24 0C37.2548 0 48 10.7452 48 24C48 37.2548 37.2548 48 24 48C10.7452 48 0 37.2548 0 24Z" fill="#9A9DA4"/>
<g clip-path="url(#clip0_47_528)">
<path d="M24.7406 30.6C26.3438 28.5938 30 23.7312 30 21C30 17.6875 27.3125 15 24 15C20.6875 15 18 17.6875 18 21C18 23.7312 21.6562 28.5938 23.2594 30.6C23.6438 31.0781 24.3562 31.0781 24.7406 30.6ZM24 19C24.5304 19 25.0391 19.2107 25.4142 19.5858C25.7893 19.9609 26 20.4696 26 21C26 21.5304 25.7893 22.0391 25.4142 22.4142C25.0391 22.7893 24.5304 23 24 23C23.4696 23 22.9609 22.7893 22.5858 22.4142C22.2107 22.0391 22 21.5304 22 21C22 20.4696 22.2107 19.9609 22.5858 19.5858C22.9609 19.2107 23.4696 19 24 19Z" fill="white"/>
</g>
<defs>
<clipPath id="clip0_47_528">
<path d="M18 15H30V31H18V15Z" fill="white"/>
</clipPath>
</defs>
</svg>
