<svg width="65" height="64" viewBox="0 0 65 64" fill="none" xmlns="http://www.w3.org/2000/svg">
<path d="M0.328125 32C0.328125 14.3269 14.655 0 32.3281 0C50.0012 0 64.3281 14.3269 64.3281 32C64.3281 49.6731 50.0012 64 32.3281 64C14.655 64 0.328125 49.6731 0.328125 32Z" fill="#9A9DA4"/>
<g clip-path="url(#clip0_47_391)">
<path d="M37.5969 19.8578L34.986 22.4734L40.8547 28.3422L43.4656 25.7313C44.4922 24.7047 44.4922 23.0453 43.4656 22.0188L41.3094 19.8578C40.2828 18.8312 38.6235 18.8312 37.5969 19.8578ZM33.8281 23.4344L33.3969 23.5656L26.6422 25.5906C25.7094 25.8719 24.9688 26.5844 24.6594 27.5125L20.5063 39.8969C20.3281 40.4266 20.4594 41.0172 20.8485 41.4156L28.0485 34.2203C27.9078 33.925 27.8281 33.5969 27.8281 33.25C27.8281 32.0078 28.836 31 30.0781 31C31.3203 31 32.3281 32.0078 32.3281 33.25C32.3281 34.4922 31.3203 35.5 30.0781 35.5C29.7313 35.5 29.4031 35.4203 29.1078 35.2797L21.9078 42.4797C22.311 42.8687 22.8969 43.0047 23.4266 42.8219L35.8156 38.6688C36.7391 38.3594 37.4563 37.6187 37.7375 36.6859L39.7625 29.9312L39.8938 29.5L33.8281 23.4344Z" fill="white"/>
</g>
<defs>
<clipPath id="clip0_47_391">
<path d="M20.3281 19H44.3281V43H20.3281V19Z" fill="white"/>
</clipPath>
</defs>
</svg>
