<svg width="48" height="48" viewBox="0 0 48 48" fill="none" xmlns="http://www.w3.org/2000/svg">
<path d="M0 24C0 10.7452 10.7452 0 24 0C37.2548 0 48 10.7452 48 24C48 37.2548 37.2548 48 24 48C10.7452 48 0 37.2548 0 24Z" fill="#9A9DA4"/>
<g clip-path="url(#clip0_47_530)">
<path d="M21.1531 15.7687C20.9125 15.1875 20.2781 14.8781 19.6719 15.0437L16.9219 15.7937C16.3781 15.9437 16 16.4375 16 17C16 24.7312 22.2688 31 30 31C30.5625 31 31.0563 30.6218 31.2063 30.0781L31.9563 27.3281C32.1219 26.7218 31.8125 26.0875 31.2312 25.8468L28.2312 24.5968C27.7219 24.3843 27.1313 24.5312 26.7844 24.9593L25.5219 26.5C23.3219 25.4593 21.5406 23.6781 20.5 21.4781L22.0406 20.2187C22.4688 19.8687 22.6156 19.2812 22.4031 18.7718L21.1531 15.7718V15.7687Z" fill="white"/>
</g>
<defs>
<clipPath id="clip0_47_530">
<path d="M16 15H32V31H16V15Z" fill="white"/>
</clipPath>
</defs>
</svg>
