<svg width="18" height="16" viewBox="0 0 18 16" fill="none" xmlns="http://www.w3.org/2000/svg">
<g clip-path="url(#clip0_103_59)">
<path d="M-1 0.75C-1 0.334375 -0.665625 0 -0.25 0H1.17188C1.85938 0 2.46875 0.4 2.75312 1H15.5969C16.4187 1 17.0188 1.78125 16.8031 2.575L15.5219 7.33437C15.2563 8.31563 14.3656 9 13.35 9H4.33437L4.50313 9.89062C4.57188 10.2437 4.88125 10.5 5.24062 10.5H14.25C14.6656 10.5 15 10.8344 15 11.25C15 11.6656 14.6656 12 14.25 12H5.24062C4.15938 12 3.23125 11.2312 3.03125 10.1719L1.41875 1.70312C1.39688 1.58438 1.29375 1.5 1.17188 1.5H-0.25C-0.665625 1.5 -1 1.16562 -1 0.75ZM3 14.5C3 14.303 3.0388 14.108 3.11418 13.926C3.18956 13.744 3.30005 13.5786 3.43934 13.4393C3.57863 13.3001 3.74399 13.1896 3.92597 13.1142C4.10796 13.0388 4.30302 13 4.5 13C4.69698 13 4.89204 13.0388 5.07403 13.1142C5.25601 13.1896 5.42137 13.3001 5.56066 13.4393C5.69995 13.5786 5.81044 13.744 5.88582 13.926C5.9612 14.108 6 14.303 6 14.5C6 14.697 5.9612 14.892 5.88582 15.074C5.81044 15.256 5.69995 15.4214 5.56066 15.5607C5.42137 15.6999 5.25601 15.8104 5.07403 15.8858C4.89204 15.9612 4.69698 16 4.5 16C4.30302 16 4.10796 15.9612 3.92597 15.8858C3.74399 15.8104 3.57863 15.6999 3.43934 15.5607C3.30005 15.4214 3.18956 15.256 3.11418 15.074C3.0388 14.892 3 14.697 3 14.5ZM13.5 13C13.8978 13 14.2794 13.158 14.5607 13.4393C14.842 13.7206 15 14.1022 15 14.5C15 14.8978 14.842 15.2794 14.5607 15.5607C14.2794 15.842 13.8978 16 13.5 16C13.1022 16 12.7206 15.842 12.4393 15.5607C12.158 15.2794 12 14.8978 12 14.5C12 14.1022 12.158 13.7206 12.4393 13.4393C12.7206 13.158 13.1022 13 13.5 13Z" fill="white"/>
</g>
<defs>
<clipPath id="clip0_103_59">
<path d="M0 0H18V16H0V0Z" fill="white"/>
</clipPath>
</defs>
</svg>
