<svg width="65" height="64" viewBox="0 0 65 64" fill="none" xmlns="http://www.w3.org/2000/svg">
<path d="M0.328125 32C0.328125 14.3269 14.655 0 32.3281 0C50.0012 0 64.3281 14.3269 64.3281 32C64.3281 49.6731 50.0012 64 32.3281 64C14.655 64 0.328125 49.6731 0.328125 32Z" fill="#9A9DA4"/>
<g clip-path="url(#clip0_47_399)">
<path d="M24.0125 20.2345C23.5672 19.8876 22.9344 19.9298 22.5312 20.3282L20.6562 22.2032C20.2578 22.6016 20.2156 23.2345 20.5578 23.6845L24.3078 28.5595C24.5187 28.836 24.8515 29.0001 25.1984 29.0001H27.7344L32.8437 34.1095C32.1547 35.4688 32.375 37.1751 33.514 38.3095L38.764 43.5595C39.35 44.1454 40.3015 44.1454 40.8875 43.5595L43.8875 40.5595C44.4734 39.9735 44.4734 39.0219 43.8875 38.436L38.6375 33.186C37.5031 32.0516 35.7969 31.8266 34.4375 32.5157L29.3281 27.4063V24.8751C29.3281 24.5235 29.164 24.1954 28.8875 23.9845L24.0125 20.2345ZM21.2609 38.5673C20.6656 39.1626 20.3281 39.9735 20.3281 40.8173C20.3281 42.5751 21.7531 44.0001 23.5109 44.0001C24.3547 44.0001 25.1656 43.6626 25.7609 43.0673L31.2828 37.5454C30.9172 36.5657 30.8609 35.5016 31.114 34.4938L28.2219 31.6016L21.2609 38.5673ZM44.3281 26.7501C44.3281 26.2579 44.2765 25.7798 44.1781 25.3204C44.0656 24.7954 43.4234 24.6595 43.0437 25.0391L40.0484 28.0345C39.9078 28.1751 39.7156 28.2548 39.5187 28.2548H36.8281C36.4156 28.2548 36.0781 27.9173 36.0781 27.5048V24.8095C36.0781 24.6126 36.1578 24.4204 36.2984 24.2798L39.2937 21.2845C39.6734 20.9048 39.5375 20.2626 39.0125 20.1501C38.5484 20.0516 38.0703 20.0001 37.5781 20.0001C33.8515 20.0001 30.8281 23.0235 30.8281 26.7501V26.7876L34.8265 30.786C36.514 30.3595 38.3797 30.8095 39.7015 32.1313L40.4375 32.8673C42.7344 31.7891 44.3281 29.4548 44.3281 26.7501ZM22.9531 40.2501C22.9531 39.9517 23.0716 39.6656 23.2826 39.4546C23.4936 39.2436 23.7797 39.1251 24.0781 39.1251C24.3765 39.1251 24.6626 39.2436 24.8736 39.4546C25.0846 39.6656 25.2031 39.9517 25.2031 40.2501C25.2031 40.5484 25.0846 40.8346 24.8736 41.0456C24.6626 41.2565 24.3765 41.3751 24.0781 41.3751C23.7797 41.3751 23.4936 41.2565 23.2826 41.0456C23.0716 40.8346 22.9531 40.5484 22.9531 40.2501Z" fill="white"/>
</g>
<defs>
<clipPath id="clip0_47_399">
<path d="M20.3281 19H44.3281V43H20.3281V19Z" fill="white"/>
</clipPath>
</defs>
</svg>
